<?xml version="1.0" encoding="UTF-8"?>
<!DOCTYPE svg PUBLIC "-//W3C//DTD SVG 1.1//EN" "http://www.w3.org/Graphics/SVG/1.1/DTD/svg11.dtd">
<!-- Creator: CorelDRAW -->
<svg xmlns="http://www.w3.org/2000/svg" xml:space="preserve" width="210mm" height="210mm" version="1.1" style="shape-rendering:geometricPrecision; text-rendering:geometricPrecision; image-rendering:optimizeQuality; fill-rule:evenodd; clip-rule:evenodd"
viewBox="0 0 21000 21000"
 xmlns:xlink="http://www.w3.org/1999/xlink"
 xmlns:xodm="http://www.corel.com/coreldraw/odm/2003">
 <defs>
  <style type="text/css">
   <![CDATA[
    .fil1 {fill:#2B2A29}
    .fil0 {fill:#28A83E}
    .fil2 {fill:#E85222;fill-rule:nonzero}
   ]]>
  </style>
 </defs>
 <g id="Слой_x0020_1">
  <metadata id="CorelCorpID_0Corel-Layer"/>
  <g id="_2150724142336">
   <path class="fil0" d="M11130.03 10620.22c-281.18,-167.76 -831.4,-371.78 -1381.17,-557.65 -3497.92,-1190.67 -5652.42,-2503.51 -8744.72,-4312.21 -622.68,-365.28 -680.29,-193.78 -152.38,190.98 3321.83,2442.15 5553.43,3545.41 9543.57,4962.35 461.44,225.87 520.91,423.8 385.67,898.34 -194.68,401.66 -359.01,817.3 -491.68,1243.57 -45.06,146.84 -217.89,765.91 -68.76,838.84 26.97,13.03 64.61,-20.93 111.05,-132l272.33 -626.01 0 2.36c241.66,-483.82 685.97,-1218.55 799.33,-1711.11 83.67,-362.99 27.44,-619.98 -273.24,-797.46z"/>
   <path class="fil0" d="M20047.13 8641.42l-0.43 0.48c-1463.46,531.17 -2719.59,570.21 -4116.58,933.14 -576.17,150.09 -1135.28,395.98 -1404.39,836.55 -303.88,496.72 -790.88,1475.89 -635.25,1574.46 16.77,8.81 43.74,-9.29 84.1,-84.15 210.54,-391.28 684.1,-1070.75 865.38,-1237.55 500.9,-462.39 1174.74,-601.81 1825.36,-747.27 1133.92,-254.21 2503.51,-638.07 3452.93,-1076.29 493.95,-228.2 528.4,-416.85 -71.12,-199.37z"/>
   <path class="fil1" d="M6962.84 10820.5c-448.89,-24.61 -918.28,-111.07 -1357.47,-139.42 -126.38,-8.33 -174.22,76.68 -46.45,145.93 275.15,149.67 756.13,225.87 1171.13,216.51l0.41 2.36c328.12,-7.42 743.59,-199.8 232.38,-225.38z"/>
   <path class="fil1" d="M6698.91 10340.45c40.42,-79.03 -94.35,-108.29 -293.72,-157.51 -887.6,-219.35 -1765.52,-464.75 -2627.54,-771.95 -119.45,-39.93 -174.27,76.68 -46.45,145.94 818.81,444.3 1652.12,793.29 2574.99,857.42 201.72,13.93 355.98,-2.3 392.72,-73.9z"/>
   <path class="fil1" d="M5490.13 9420.76c201.25,13.93 355.57,-2.29 392.25,-73.89 39.52,-78.55 -130.14,-157.52 -332.28,-193.77 -1190.61,-211.94 -2416.51,-803.98 -3545.41,-1425.34 -144.96,-79.45 -218.37,67.37 -71.05,169.16 572.37,402.13 1181.01,749.97 1817.93,1039.12 599.53,265.37 1320.31,455.89 1738.56,484.72z"/>
   <path class="fil1" d="M18651.59 9807.86c-24.6,-31.12 -129.7,9.78 -158.47,19.97 -109.68,38.14 -218.03,87.35 -325.35,131.1l-0.48 0c-382.47,157.15 -774.77,289.44 -1174.32,395.92 -315.08,83.2 -634.33,151.05 -954.06,214.7 -46.99,9.28 -169.15,25.1 -201.73,59.47 -9.35,9.07 -15.03,21.36 -15.8,34.39 0,89.71 236.58,86.46 288.59,86.46 112.02,-2.36 224.47,-10.21 336.02,-22.81 516.95,-66.06 1020.92,-210.23 1494.6,-427.53 122.64,-55.74 664.49,-318.77 711,-450.29 3.39,-6.39 5.2,-13.51 5.2,-20.69 0,-7.23 -1.81,-14.35 -5.2,-20.69z"/>
   <path class="fil1" d="M17434.93 10866.96c-80.89,21.84 -162.7,52.07 -242.57,79.04l-0.96 0.91c-285.12,97.06 -578.24,168.73 -876.01,214.26 -244.86,36.68 -492.08,56.23 -738.87,71.55 -35.78,1.82 -163.62,9.78 -169.23,61.79 -7.83,78.11 220.32,129.69 276.6,136.2 419.63,47.85 867.63,-28.83 1263.54,-168.25 148.77,-51.93 292.35,-117.57 428.93,-196.11 46.44,-26.97 169.64,-103.64 185.86,-156.6 3.08,-6.83 4.35,-14.32 3.87,-21.72 -0.5,-7.42 -2.79,-14.67 -6.58,-21.07 -21.84,-28.35 -97.14,-7.42 -124.58,0z"/>
   <path class="fil1" d="M16458.08 11936.77c-3.68,-21.36 -171.45,-6.52 -189.61,-6.52 -129.21,5.61 -258.37,10.26 -387.53,10.26 -161.14,-1.33 -321.78,-16.89 -480.08,-46.46 -135.67,-26.06 -237.94,36.68 -68.78,127.3 140.26,61.83 289.39,101.21 441.96,116.67 165.78,9.1 331.86,-12.5 489.8,-63.71 39.02,-14.35 210.04,-78 194.24,-139.41l0 1.87z"/>
   <path class="fil1" d="M12848.58 12548.35c158.49,-128.26 377.84,-276.96 501.87,-515.44 98.99,-190.93 46.99,-232.74 -103.58,-117.52 -163.07,129.35 -336.39,245.36 -518.22,346.64 -233.28,132 -429.82,271.41 -632.46,395.98 -855.55,526.05 -1455.5,1613.09 -1362.55,2595.92 25.54,266.77 100.81,281.67 147.27,42.77 240.28,-1202.25 995.46,-2064.8 1967.67,-2750.71l0 2.36z"/>
   <path class="fil1" d="M14149.79 13878.83c56.77,48.02 119.21,88.99 185.86,121.74 79.45,38.61 281.67,149.19 363,102.74 118.96,-68.28 -38.56,-185.39 -131.52,-227.25 -114.37,-52.55 -205.41,-177.06 -273.29,-278.82 -94.29,-142.19 -177.05,-290.9 -276.05,-430.32 -248.61,-350.44 -541.37,-560 -988.44,-541.86l-2.36 0.91c-83.6,32.52 -95.25,81.33 -7.42,118.96 282.09,119.45 472.66,306.22 653.89,546.5 148.21,197.08 286.24,428.03 476.33,587.4z"/>
   <path class="fil1" d="M13429.04 14461.6c-283.97,-35.3 -483.82,-89.64 -551.63,-414.98l0.89 0c-14.35,-74.38 -17.66,-380.6 -139.4,-340.67 -44.17,14.91 -88.33,127.34 -110.59,254.21 -172.89,967.58 982.85,666.44 986.59,652.98 19.05,-69.73 -4.65,-129.21 -185.86,-151.54z"/>
   <path class="fil1" d="M14685.19 14340.32c32.52,414.5 -21.41,640.86 -382.95,383.38 -146.84,-105.03 -403.83,-197.51 -517.24,-132.91 -97.13,55.32 -40.9,87.85 26.47,117.11 114.32,46.51 327.65,136.15 468.44,293.24 473.99,530.76 743.59,-119.93 694.79,-401.47 -58.59,-342.54 -232.38,-642.29 -289.51,-259.35z"/>
   <g>
    <path class="fil2" d="M8931.13 14357.59c16.04,-29.37 28.96,-65.03 38.79,-106.91 9.78,-42.82 16.89,-90 21.43,-141.69 5.3,-51.65 9.33,-106.49 12,-164.41l3.98 -136.32 320.81 0 0 582.75 -419.32 0c8.19,-9.65 15.68,-20.57 22.31,-33.42zm610.87 33.42l0 -759.21 -719.15 0 -10.68 292.71c-2.65,66.84 -7.12,128.8 -13.32,185.79 -5.37,57.09 -14.25,106.97 -26.8,149.74 -12.43,41.88 -29.38,74.38 -50.79,97.55 -20.45,23.16 -46.75,34.33 -78.85,33.42l-29.38 0 -1.33 370.22 200.47 0 0 -193.76 660.33 0 0 193.76 200.54 0 0 -370.22 -131.04 0z"/>
    <path class="fil2" d="M8021.68 13571.64c88.2,0 153.29,-17.78 195.17,-53.44 41.91,-35.65 63.27,-85.96 64.12,-151.06l-148.34 0c-0.86,32.09 -10.69,56.58 -29.38,73.54 -18.76,16.04 -45.92,24.01 -81.57,24.01 -36.49,0 -64.18,-7.97 -82.89,-24.01 -17.8,-16.96 -27.13,-41.45 -28.04,-73.54l-148.35 0c0.91,65.1 21.84,115.41 62.8,151.06 41.93,35.66 107.39,53.44 196.48,53.44z"/>
    <polygon class="fil2" points="7805.15,14241.31 7805.15,13631.82 7589.96,13631.82 7589.96,14567.43 7794.47,14567.43 8240.89,13959.27 8240.89,14567.43 8454.75,14567.43 8454.75,13631.82 8251.56,13631.82 "/>
    <polygon class="fil2" points="6879.06,14177.15 7313.48,14177.15 7313.48,14008.71 6879.06,14008.71 6879.06,13805.54 7370.97,13805.54 7370.97,13631.8 6663.87,13631.8 6663.87,14567.45 7388.35,14567.45 7388.35,14393.66 6879.06,14393.66 "/>
    <path class="fil2" d="M6225.65 14090.26c-33,28.54 -82.9,42.77 -149.73,42.77l-176.41 0 0 -324.79 176.41 0c66.83,0 116.73,14.23 149.73,42.77 32.94,28.52 49.46,68.64 49.46,120.29 0,50.8 -16.52,90.42 -49.46,118.96zm78.83 -417.04c-60.62,-27.57 -132.76,-41.44 -216.5,-41.44l-405.03 0 0 935.67 216.56 0 0 -257.96 188.47 0c83.74,0 155.88,-13.39 216.5,-40.12 60.57,-27.63 107.4,-66.84 140.4,-117.63 32.93,-50.81 49.4,-110.95 49.4,-180.44 0,-70.34 -16.47,-130.98 -49.4,-181.77 -33,-50.78 -79.83,-89.59 -140.4,-116.31z"/>
    <polygon class="fil2" points="4708.92,13808.24 5007,13808.24 5007,14567.45 5220.86,14567.45 5220.86,13808.24 5520.26,13808.24 5520.26,13631.78 4708.92,13631.78 "/>
    <polygon class="fil2" points="4327.45,14000.71 3902.38,14000.71 3902.38,13631.82 3685.87,13631.82 3685.87,14567.42 3902.38,14567.42 3902.38,14183.8 4327.45,14183.8 4327.45,14567.42 4543.96,14567.42 4543.96,13631.82 4327.45,13631.82 "/>
    <path class="fil2" d="M2859.44 14202.54l148.88 -358.1 148.34 358.1 -297.22 0zm43.37 -570.74l-416.98 935.65 221.88 0 83.38 -200.52 433.68 0 83.08 200.52 227.25 0 -418.37 -935.65 -213.92 0z"/>
    <polygon class="fil2" points="1682.11,14241.31 1682.11,13631.82 1466.91,13631.82 1466.91,14567.43 1671.43,14567.43 2117.84,13959.27 2117.84,14567.43 2331.7,14567.43 2331.7,13631.82 2128.53,13631.82 "/>
    <polygon class="fil2" points="492.87,13808.24 790.95,13808.24 790.95,14567.45 1004.81,14567.45 1004.81,13808.24 1304.2,13808.24 1304.2,13631.78 492.87,13631.78 "/>
   </g>
  </g>
 </g>
</svg>